<svg xmlns="http://www.w3.org/2000/svg" viewBox="0 0 16 16" fill="#000000" id="Basket--Streamline-Tabler-Filled" height="16" width="16"><desc>Basket Streamline Icon: https://streamlinehq.com</desc><path d="M10.632666666666665 2.456 11.368666666666666 4.666666666666666H12.666666666666666a2 2 0 0 1 1.9746666666666668 2.3179999999999996l-0.8346666666666667 4.754A2.6666666666666665 2.6666666666666665 0 0 1 11.170666666666666 14H4.829333333333333a2.6626666666666665 2.6626666666666665 0 0 1 -2.6333333333333333 -2.247333333333333l-0.8386666666666667 -4.782A2 2 0 0 1 3.333333333333333 4.666666666666666h1.2966666666666666L5.366666666666667 2.456a0.6666666666666666 0.6666666666666666 0 0 1 1.2653333333333332 0.42133333333333334L6.035333333333334 4.666666666666666h3.9286666666666665l-0.5966666666666667 -1.7893333333333334a0.6666666666666666 0.6666666666666666 0 1 1 1.2653333333333332 -0.42133333333333334M8 7.333333333333333a2 2 0 0 0 -1.9966666666666666 1.8826666666666665L6 9.333333333333332a2 2 0 1 0 2 -2" stroke-width="0.6667"></path></svg>