<svg xmlns="http://www.w3.org/2000/svg" viewBox="0 0 16 16" fill="#000000" id="Location--Streamline-Tabler-Filled" height="16" width="16"><desc>Location Streamline Icon: https://streamlinehq.com</desc><path d="M13.927333333333332 1.337333333333333 13.998 1.3333333333333333l0.08666666666666667 0.005333333333333333 0.06 0.010666666666666666 0.08199999999999999 0.023333333333333334 0.07133333333333333 0.030666666666666665 0.06666666666666667 0.038 0.06 0.04466666666666667 0.05466666666666667 0.049999999999999996 0.034666666666666665 0.03933333333333333 0.05466666666666667 0.07733333333333334 0.034666666666666665 0.064c0.03133333333333333 0.06666666666666667 0.05133333333333333 0.1373333333333333 0.06 0.21066666666666667l0.003333333333333333 0.07066666666666666c0 0.049999999999999996 -0.005333333333333333 0.09933333333333333 -0.016 0.14666666666666667l-0.023333333333333334 0.08199999999999999 -4.354666666666667 12.051333333333334A1.0333333333333332 1.0333333333333332 0 0 1 9.333333333333332 14.879999999999999a1.0313333333333332 1.0313333333333332 0 0 1 -0.8859999999999999 -0.498l-0.043333333333333335 -0.08466666666666667 -2.2346666666666666 -4.468 -4.446666666666666 -2.2239999999999998a1.0333333333333332 1.0333333333333332 0 0 1 -0.5986666666666667 -0.8393333333333333L1.1199999999999999 6.666666666666666c0 -0.37333333333333335 0.20066666666666666 -0.7146666666666667 0.5606666666666666 -0.9133333333333333l0.09333333333333334 -0.04666666666666667 12.011333333333333 -4.3373333333333335 0.07066666666666666 -0.019999999999999997 0.072 -0.011999999999999999z" stroke-width="0.6667"></path></svg>